%TF.GenerationSoftware,KiCad,Pcbnew,9.0.7*%
%TF.CreationDate,2026-02-24T12:08:09-06:00*%
%TF.ProjectId,portable_film_pcb,706f7274-6162-46c6-955f-66696c6d5f70,rev?*%
%TF.SameCoordinates,Original*%
%TF.FileFunction,Soldermask,Bot*%
%TF.FilePolarity,Negative*%
%FSLAX46Y46*%
G04 Gerber Fmt 4.6, Leading zero omitted, Abs format (unit mm)*
G04 Created by KiCad (PCBNEW 9.0.7) date 2026-02-24 12:08:09*
%MOMM*%
%LPD*%
G01*
G04 APERTURE LIST*
G04 Aperture macros list*
%AMRoundRect*
0 Rectangle with rounded corners*
0 $1 Rounding radius*
0 $2 $3 $4 $5 $6 $7 $8 $9 X,Y pos of 4 corners*
0 Add a 4 corners polygon primitive as box body*
4,1,4,$2,$3,$4,$5,$6,$7,$8,$9,$2,$3,0*
0 Add four circle primitives for the rounded corners*
1,1,$1+$1,$2,$3*
1,1,$1+$1,$4,$5*
1,1,$1+$1,$6,$7*
1,1,$1+$1,$8,$9*
0 Add four rect primitives between the rounded corners*
20,1,$1+$1,$2,$3,$4,$5,0*
20,1,$1+$1,$4,$5,$6,$7,0*
20,1,$1+$1,$6,$7,$8,$9,0*
20,1,$1+$1,$8,$9,$2,$3,0*%
G04 Aperture macros list end*
%ADD10RoundRect,0.250000X-1.050000X-1.050000X1.050000X-1.050000X1.050000X1.050000X-1.050000X1.050000X0*%
%ADD11C,2.600000*%
%ADD12C,3.200000*%
%ADD13C,1.600000*%
%ADD14R,1.050000X1.500000*%
%ADD15O,1.050000X1.500000*%
%ADD16RoundRect,0.250001X-0.949999X-0.949999X0.949999X-0.949999X0.949999X0.949999X-0.949999X0.949999X0*%
%ADD17C,2.400000*%
%ADD18R,1.600000X1.600000*%
%ADD19O,1.600000X1.600000*%
%ADD20RoundRect,0.249999X-0.850001X-0.850001X0.850001X-0.850001X0.850001X0.850001X-0.850001X0.850001X0*%
%ADD21C,2.200000*%
%ADD22R,1.000000X1.000000*%
%ADD23C,1.000000*%
%ADD24RoundRect,0.250000X-0.550000X-0.550000X0.550000X-0.550000X0.550000X0.550000X-0.550000X0.550000X0*%
%ADD25R,1.700000X1.700000*%
%ADD26C,1.700000*%
G04 APERTURE END LIST*
D10*
%TO.C,SW1*%
X96520000Y-106680000D03*
D11*
X101600000Y-106680000D03*
%TD*%
D12*
%TO.C,H2*%
X177800000Y-66040000D03*
%TD*%
D13*
%TO.C,C4*%
X106680000Y-121920000D03*
X111680000Y-121920000D03*
%TD*%
D10*
%TO.C,J2*%
X142240000Y-122092500D03*
D11*
X147320000Y-122092500D03*
X152400000Y-122092500D03*
X157480000Y-122092500D03*
%TD*%
D14*
%TO.C,Q1*%
X88900000Y-116840000D03*
D15*
X90170000Y-116840000D03*
X91440000Y-116840000D03*
%TD*%
D16*
%TO.C,J7*%
X86360000Y-76200000D03*
D17*
X89860000Y-76200000D03*
%TD*%
D18*
%TO.C,A1*%
X125740000Y-66040000D03*
D19*
X125740000Y-68580000D03*
X125740000Y-71120000D03*
X125740000Y-73660000D03*
X125740000Y-76200000D03*
X125740000Y-78740000D03*
X125740000Y-81280000D03*
X125740000Y-83820000D03*
X138440000Y-83820000D03*
X138440000Y-81280000D03*
X138440000Y-78740000D03*
X138440000Y-76200000D03*
X138440000Y-73660000D03*
X138440000Y-71120000D03*
X138440000Y-68580000D03*
X138440000Y-66040000D03*
%TD*%
D12*
%TO.C,H3*%
X86360000Y-127000000D03*
%TD*%
%TO.C,H4*%
X177800000Y-127000000D03*
%TD*%
D13*
%TO.C,C2*%
X152400000Y-111760000D03*
X154900000Y-111760000D03*
%TD*%
D20*
%TO.C,J9*%
X127000000Y-91440000D03*
D21*
X129540000Y-91440000D03*
X132080000Y-91440000D03*
X134620000Y-91440000D03*
%TD*%
D13*
%TO.C,C12*%
X144820000Y-86360000D03*
X147320000Y-86360000D03*
%TD*%
D22*
%TO.C,J6*%
X175260000Y-78740000D03*
D23*
X176530000Y-78740000D03*
X175260000Y-80010000D03*
X176530000Y-80010000D03*
X175260000Y-81280000D03*
X176530000Y-81280000D03*
X175260000Y-82550000D03*
X176530000Y-82550000D03*
X175260000Y-83820000D03*
X176530000Y-83820000D03*
%TD*%
D13*
%TO.C,C11*%
X144820000Y-66040000D03*
X147320000Y-66040000D03*
%TD*%
D24*
%TO.C,C8*%
X113340000Y-76200000D03*
D13*
X116840000Y-76200000D03*
%TD*%
D18*
%TO.C,A2*%
X95260000Y-66040000D03*
D19*
X95260000Y-68580000D03*
X95260000Y-71120000D03*
X95260000Y-73660000D03*
X95260000Y-76200000D03*
X95260000Y-78740000D03*
X95260000Y-81280000D03*
X95260000Y-83820000D03*
X107960000Y-83820000D03*
X107960000Y-81280000D03*
X107960000Y-78740000D03*
X107960000Y-76200000D03*
X107960000Y-73660000D03*
X107960000Y-71120000D03*
X107960000Y-68580000D03*
X107960000Y-66040000D03*
%TD*%
D24*
%TO.C,C1*%
X145320000Y-106680000D03*
D13*
X147320000Y-106680000D03*
%TD*%
D25*
%TO.C,J12*%
X177800000Y-111760000D03*
D26*
X177800000Y-114300000D03*
X177800000Y-116840000D03*
%TD*%
D17*
%TO.C,F1*%
X123240000Y-123170000D03*
D21*
X116840000Y-121920000D03*
X116840000Y-124420000D03*
X120340000Y-121920000D03*
X120340000Y-124420000D03*
X126140000Y-121920000D03*
X126140000Y-124420000D03*
X129640000Y-121920000D03*
X129640000Y-124420000D03*
%TD*%
D12*
%TO.C,H1*%
X86360000Y-66040000D03*
%TD*%
D13*
%TO.C,C6*%
X165140000Y-91440000D03*
X167640000Y-91440000D03*
%TD*%
D20*
%TO.C,J8*%
X96520000Y-91440000D03*
D21*
X99060000Y-91440000D03*
X101600000Y-91440000D03*
X104140000Y-91440000D03*
%TD*%
D16*
%TO.C,J1*%
X86360000Y-106680000D03*
D17*
X89860000Y-106680000D03*
%TD*%
D13*
%TO.C,C3*%
X106680000Y-116840000D03*
X106680000Y-114340000D03*
%TD*%
%TO.C,C7*%
X114340000Y-66040000D03*
X116840000Y-66040000D03*
%TD*%
%TO.C,C9*%
X114340000Y-86360000D03*
X116840000Y-86360000D03*
%TD*%
D25*
%TO.C,J5*%
X157480000Y-101600000D03*
D26*
X157480000Y-99060000D03*
X154940000Y-101600000D03*
X154940000Y-99060000D03*
X152400000Y-101600000D03*
X152400000Y-99060000D03*
X149860000Y-101600000D03*
X149860000Y-99060000D03*
X147320000Y-101600000D03*
X147320000Y-99060000D03*
X144780000Y-101600000D03*
X144780000Y-99060000D03*
X142240000Y-101600000D03*
X142240000Y-99060000D03*
X139700000Y-101600000D03*
X139700000Y-99060000D03*
X137160000Y-101600000D03*
X137160000Y-99060000D03*
X134620000Y-101600000D03*
X134620000Y-99060000D03*
X132080000Y-101600000D03*
X132080000Y-99060000D03*
X129540000Y-101600000D03*
X129540000Y-99060000D03*
X127000000Y-101600000D03*
X127000000Y-99060000D03*
X124460000Y-101600000D03*
X124460000Y-99060000D03*
X121920000Y-101600000D03*
X121920000Y-99060000D03*
X119380000Y-101600000D03*
X119380000Y-99060000D03*
X116840000Y-101600000D03*
X116840000Y-99060000D03*
X114300000Y-101600000D03*
X114300000Y-99060000D03*
X111760000Y-101600000D03*
X111760000Y-99060000D03*
X109220000Y-101600000D03*
X109220000Y-99060000D03*
%TD*%
D24*
%TO.C,C10*%
X143820000Y-76200000D03*
D13*
X147320000Y-76200000D03*
%TD*%
%TO.C,R1*%
X91440000Y-128270000D03*
X99060000Y-128270000D03*
%TD*%
M02*
