%TF.GenerationSoftware,KiCad,Pcbnew,9.0.7*%
%TF.CreationDate,2026-02-24T12:08:09-06:00*%
%TF.ProjectId,portable_film_pcb,706f7274-6162-46c6-955f-66696c6d5f70,rev?*%
%TF.SameCoordinates,Original*%
%TF.FileFunction,Copper,L2,Bot*%
%TF.FilePolarity,Positive*%
%FSLAX46Y46*%
G04 Gerber Fmt 4.6, Leading zero omitted, Abs format (unit mm)*
G04 Created by KiCad (PCBNEW 9.0.7) date 2026-02-24 12:08:09*
%MOMM*%
%LPD*%
G01*
G04 APERTURE LIST*
G04 Aperture macros list*
%AMRoundRect*
0 Rectangle with rounded corners*
0 $1 Rounding radius*
0 $2 $3 $4 $5 $6 $7 $8 $9 X,Y pos of 4 corners*
0 Add a 4 corners polygon primitive as box body*
4,1,4,$2,$3,$4,$5,$6,$7,$8,$9,$2,$3,0*
0 Add four circle primitives for the rounded corners*
1,1,$1+$1,$2,$3*
1,1,$1+$1,$4,$5*
1,1,$1+$1,$6,$7*
1,1,$1+$1,$8,$9*
0 Add four rect primitives between the rounded corners*
20,1,$1+$1,$2,$3,$4,$5,0*
20,1,$1+$1,$4,$5,$6,$7,0*
20,1,$1+$1,$6,$7,$8,$9,0*
20,1,$1+$1,$8,$9,$2,$3,0*%
G04 Aperture macros list end*
%TA.AperFunction,ComponentPad*%
%ADD10RoundRect,0.250000X-1.050000X-1.050000X1.050000X-1.050000X1.050000X1.050000X-1.050000X1.050000X0*%
%TD*%
%TA.AperFunction,ComponentPad*%
%ADD11C,2.600000*%
%TD*%
%TA.AperFunction,ComponentPad*%
%ADD12C,1.600000*%
%TD*%
%TA.AperFunction,ComponentPad*%
%ADD13R,1.050000X1.500000*%
%TD*%
%TA.AperFunction,ComponentPad*%
%ADD14O,1.050000X1.500000*%
%TD*%
%TA.AperFunction,ComponentPad*%
%ADD15RoundRect,0.250001X-0.949999X-0.949999X0.949999X-0.949999X0.949999X0.949999X-0.949999X0.949999X0*%
%TD*%
%TA.AperFunction,ComponentPad*%
%ADD16C,2.400000*%
%TD*%
%TA.AperFunction,ComponentPad*%
%ADD17R,1.600000X1.600000*%
%TD*%
%TA.AperFunction,ComponentPad*%
%ADD18O,1.600000X1.600000*%
%TD*%
%TA.AperFunction,ComponentPad*%
%ADD19RoundRect,0.249999X-0.850001X-0.850001X0.850001X-0.850001X0.850001X0.850001X-0.850001X0.850001X0*%
%TD*%
%TA.AperFunction,ComponentPad*%
%ADD20C,2.200000*%
%TD*%
%TA.AperFunction,ComponentPad*%
%ADD21R,1.000000X1.000000*%
%TD*%
%TA.AperFunction,ComponentPad*%
%ADD22C,1.000000*%
%TD*%
%TA.AperFunction,ComponentPad*%
%ADD23RoundRect,0.250000X-0.550000X-0.550000X0.550000X-0.550000X0.550000X0.550000X-0.550000X0.550000X0*%
%TD*%
%TA.AperFunction,ComponentPad*%
%ADD24R,1.700000X1.700000*%
%TD*%
%TA.AperFunction,ComponentPad*%
%ADD25C,1.700000*%
%TD*%
%TA.AperFunction,ViaPad*%
%ADD26C,0.600000*%
%TD*%
%TA.AperFunction,ViaPad*%
%ADD27C,0.300000*%
%TD*%
%TA.AperFunction,Conductor*%
%ADD28C,0.635000*%
%TD*%
%TA.AperFunction,Conductor*%
%ADD29C,0.177800*%
%TD*%
G04 APERTURE END LIST*
D10*
%TO.P,SW1,1,A*%
%TO.N,Net-(SW1-A)*%
X96520000Y-106680000D03*
D11*
%TO.P,SW1,2,B*%
%TO.N,/+11.1V*%
X101600000Y-106680000D03*
%TD*%
D12*
%TO.P,C4,1*%
%TO.N,GND*%
X106680000Y-121920000D03*
%TO.P,C4,2*%
%TO.N,Net-(U1-PH3-BOOT0)*%
X111680000Y-121920000D03*
%TD*%
D10*
%TO.P,J2,1,Pin_1*%
%TO.N,/+11.1V*%
X142240000Y-122092500D03*
D11*
%TO.P,J2,2,Pin_2*%
%TO.N,GND*%
X147320000Y-122092500D03*
%TO.P,J2,3,Pin_3*%
%TO.N,/+5V*%
X152400000Y-122092500D03*
%TO.P,J2,4,Pin_4*%
%TO.N,GND*%
X157480000Y-122092500D03*
%TD*%
D13*
%TO.P,Q1,1,S*%
%TO.N,Net-(Q1-S)*%
X88900000Y-116840000D03*
D14*
%TO.P,Q1,2,G*%
%TO.N,/LED_PWM*%
X90170000Y-116840000D03*
%TO.P,Q1,3,D*%
%TO.N,Net-(J1-Pin_2)*%
X91440000Y-116840000D03*
%TD*%
D15*
%TO.P,J7,1,Pin_1*%
%TO.N,/+11.1V*%
X86360000Y-76200000D03*
D16*
%TO.P,J7,2,Pin_2*%
%TO.N,GND*%
X89860000Y-76200000D03*
%TD*%
D17*
%TO.P,A1,1,GND*%
%TO.N,GND*%
X125740000Y-66040000D03*
D18*
%TO.P,A1,2,VDD*%
%TO.N,/+5V*%
X125740000Y-68580000D03*
%TO.P,A1,3,1B*%
%TO.N,Net-(A1-1B)*%
X125740000Y-71120000D03*
%TO.P,A1,4,1A*%
%TO.N,Net-(A1-1A)*%
X125740000Y-73660000D03*
%TO.P,A1,5,2A*%
%TO.N,Net-(A1-2A)*%
X125740000Y-76200000D03*
%TO.P,A1,6,2B*%
%TO.N,Net-(A1-2B)*%
X125740000Y-78740000D03*
%TO.P,A1,7,GND*%
%TO.N,GND*%
X125740000Y-81280000D03*
%TO.P,A1,8,VMOT*%
%TO.N,/+11.1V*%
X125740000Y-83820000D03*
%TO.P,A1,9,~{ENABLE}*%
%TO.N,GND*%
X138440000Y-83820000D03*
%TO.P,A1,10,MS1*%
%TO.N,/+5V*%
X138440000Y-81280000D03*
%TO.P,A1,11,MS2*%
X138440000Y-78740000D03*
%TO.P,A1,12,MS3*%
X138440000Y-76200000D03*
%TO.P,A1,13,~{RESET}*%
X138440000Y-73660000D03*
%TO.P,A1,14,~{SLEEP}*%
X138440000Y-71120000D03*
%TO.P,A1,15,STEP*%
%TO.N,/STEP_Y*%
X138440000Y-68580000D03*
%TO.P,A1,16,DIR*%
%TO.N,/DIR_Y*%
X138440000Y-66040000D03*
%TD*%
D12*
%TO.P,C2,1*%
%TO.N,Net-(C1-Pad2)*%
X152400000Y-111760000D03*
%TO.P,C2,2*%
%TO.N,GND*%
X154900000Y-111760000D03*
%TD*%
D19*
%TO.P,J9,1,Pin_1*%
%TO.N,Net-(A1-1B)*%
X127000000Y-91440000D03*
D20*
%TO.P,J9,2,Pin_2*%
%TO.N,Net-(A1-1A)*%
X129540000Y-91440000D03*
%TO.P,J9,3,Pin_3*%
%TO.N,Net-(A1-2A)*%
X132080000Y-91440000D03*
%TO.P,J9,4,Pin_4*%
%TO.N,Net-(A1-2B)*%
X134620000Y-91440000D03*
%TD*%
D12*
%TO.P,C12,1*%
%TO.N,/+5V*%
X144820000Y-86360000D03*
%TO.P,C12,2*%
%TO.N,GND*%
X147320000Y-86360000D03*
%TD*%
D21*
%TO.P,J6,1,VTref*%
%TO.N,/+3.3V*%
X175260000Y-78740000D03*
D22*
%TO.P,J6,2,SWDIO/TMS*%
%TO.N,Net-(J6-SWDIO{slash}TMS)*%
X176530000Y-78740000D03*
%TO.P,J6,3,GND*%
%TO.N,GND*%
X175260000Y-80010000D03*
%TO.P,J6,4,SWCLK/TCK*%
%TO.N,Net-(J6-SWCLK{slash}TCK)*%
X176530000Y-80010000D03*
%TO.P,J6,5,GND*%
%TO.N,GND*%
X175260000Y-81280000D03*
%TO.P,J6,6,SWO/TDO*%
%TO.N,Net-(J6-SWO{slash}TDO)*%
X176530000Y-81280000D03*
%TO.P,J6,7,KEY*%
%TO.N,unconnected-(J6-KEY-Pad7)*%
X175260000Y-82550000D03*
%TO.P,J6,8,NC/TDI*%
%TO.N,Net-(J6-NC{slash}TDI)*%
X176530000Y-82550000D03*
%TO.P,J6,9,GNDDetect*%
%TO.N,GND*%
X175260000Y-83820000D03*
%TO.P,J6,10,~{RESET}*%
%TO.N,Net-(J6-~{RESET})*%
X176530000Y-83820000D03*
%TD*%
D12*
%TO.P,C11,1*%
%TO.N,Net-(C10-Pad2)*%
X144820000Y-66040000D03*
%TO.P,C11,2*%
%TO.N,GND*%
X147320000Y-66040000D03*
%TD*%
D23*
%TO.P,C8,1*%
%TO.N,/+11.1V*%
X113340000Y-76200000D03*
D12*
%TO.P,C8,2*%
%TO.N,Net-(C7-Pad1)*%
X116840000Y-76200000D03*
%TD*%
D17*
%TO.P,A2,1,GND*%
%TO.N,GND*%
X95260000Y-66040000D03*
D18*
%TO.P,A2,2,VDD*%
%TO.N,/+5V*%
X95260000Y-68580000D03*
%TO.P,A2,3,1B*%
%TO.N,Net-(A2-1B)*%
X95260000Y-71120000D03*
%TO.P,A2,4,1A*%
%TO.N,Net-(A2-1A)*%
X95260000Y-73660000D03*
%TO.P,A2,5,2A*%
%TO.N,Net-(A2-2A)*%
X95260000Y-76200000D03*
%TO.P,A2,6,2B*%
%TO.N,Net-(A2-2B)*%
X95260000Y-78740000D03*
%TO.P,A2,7,GND*%
%TO.N,GND*%
X95260000Y-81280000D03*
%TO.P,A2,8,VMOT*%
%TO.N,/+11.1V*%
X95260000Y-83820000D03*
%TO.P,A2,9,~{ENABLE}*%
%TO.N,GND*%
X107960000Y-83820000D03*
%TO.P,A2,10,MS1*%
%TO.N,/+5V*%
X107960000Y-81280000D03*
%TO.P,A2,11,MS2*%
X107960000Y-78740000D03*
%TO.P,A2,12,MS3*%
X107960000Y-76200000D03*
%TO.P,A2,13,~{RESET}*%
X107960000Y-73660000D03*
%TO.P,A2,14,~{SLEEP}*%
X107960000Y-71120000D03*
%TO.P,A2,15,STEP*%
%TO.N,/STEP_X*%
X107960000Y-68580000D03*
%TO.P,A2,16,DIR*%
%TO.N,/DIR_X*%
X107960000Y-66040000D03*
%TD*%
D23*
%TO.P,C1,1*%
%TO.N,/+3.3V*%
X145320000Y-106680000D03*
D12*
%TO.P,C1,2*%
%TO.N,Net-(C1-Pad2)*%
X147320000Y-106680000D03*
%TD*%
D24*
%TO.P,J12,1,Pin_1*%
%TO.N,GND*%
X177800000Y-111760000D03*
D25*
%TO.P,J12,2,Pin_2*%
%TO.N,/STM_TX*%
X177800000Y-114300000D03*
%TO.P,J12,3,Pin_3*%
%TO.N,/STM_RX*%
X177800000Y-116840000D03*
%TD*%
D20*
%TO.P,F1,1*%
%TO.N,/+11.1V*%
X116840000Y-121920000D03*
X116840000Y-124420000D03*
X120340000Y-121920000D03*
X120340000Y-124420000D03*
%TO.P,F1,2*%
%TO.N,Net-(SW1-A)*%
X126140000Y-121920000D03*
X126140000Y-124420000D03*
X129640000Y-121920000D03*
X129640000Y-124420000D03*
%TD*%
D12*
%TO.P,C6,1*%
%TO.N,Net-(J6-~{RESET})*%
X165140000Y-91440000D03*
%TO.P,C6,2*%
%TO.N,GND*%
X167640000Y-91440000D03*
%TD*%
D19*
%TO.P,J8,1,Pin_1*%
%TO.N,Net-(A2-1B)*%
X96520000Y-91440000D03*
D20*
%TO.P,J8,2,Pin_2*%
%TO.N,Net-(A2-1A)*%
X99060000Y-91440000D03*
%TO.P,J8,3,Pin_3*%
%TO.N,Net-(A2-2A)*%
X101600000Y-91440000D03*
%TO.P,J8,4,Pin_4*%
%TO.N,Net-(A2-2B)*%
X104140000Y-91440000D03*
%TD*%
D15*
%TO.P,J1,1,Pin_1*%
%TO.N,/+11.1V*%
X86360000Y-106680000D03*
D16*
%TO.P,J1,2,Pin_2*%
%TO.N,Net-(J1-Pin_2)*%
X89860000Y-106680000D03*
%TD*%
D12*
%TO.P,C3,1*%
%TO.N,Net-(U1-NRST)*%
X106680000Y-116840000D03*
%TO.P,C3,2*%
%TO.N,GND*%
X106680000Y-114340000D03*
%TD*%
%TO.P,C7,1*%
%TO.N,Net-(C7-Pad1)*%
X114340000Y-66040000D03*
%TO.P,C7,2*%
%TO.N,GND*%
X116840000Y-66040000D03*
%TD*%
%TO.P,C9,1*%
%TO.N,/+5V*%
X114340000Y-86360000D03*
%TO.P,C9,2*%
%TO.N,GND*%
X116840000Y-86360000D03*
%TD*%
D24*
%TO.P,J5,1,3V3*%
%TO.N,unconnected-(J5-3V3-Pad1)_1*%
X157480000Y-101600000D03*
D25*
%TO.P,J5,2,5V*%
%TO.N,/+5V*%
X157480000Y-99060000D03*
%TO.P,J5,3,SDA_I2C1/GPIO02*%
%TO.N,unconnected-(J5-SDA_I2C1{slash}GPIO02-Pad3)*%
X154940000Y-101600000D03*
%TO.P,J5,4,5V*%
%TO.N,/+5V*%
X154940000Y-99060000D03*
%TO.P,J5,5,SCL_I2C1/GPIO03*%
%TO.N,unconnected-(J5-SCL_I2C1{slash}GPIO03-Pad5)*%
X152400000Y-101600000D03*
%TO.P,J5,6,GND*%
%TO.N,GND*%
X152400000Y-99060000D03*
%TO.P,J5,7,GPCLK0/GPIO04*%
%TO.N,unconnected-(J5-GPCLK0{slash}GPIO04-Pad7)*%
X149860000Y-101600000D03*
%TO.P,J5,8,GPIO14/UART_TXD*%
%TO.N,/STM_RX*%
X149860000Y-99060000D03*
%TO.P,J5,9,GND*%
%TO.N,GND*%
X147320000Y-101600000D03*
%TO.P,J5,10,GPIO15/UART_RXD*%
%TO.N,/STM_TX*%
X147320000Y-99060000D03*
%TO.P,J5,11,GPIO17/SPI1_~{CE1}*%
%TO.N,unconnected-(J5-GPIO17{slash}SPI1_~{CE1}-Pad11)*%
X144780000Y-101600000D03*
%TO.P,J5,12,GPIO18/SPI1_~{CE0}/PCM_CLK/PWM0*%
%TO.N,unconnected-(J5-GPIO18{slash}SPI1_~{CE0}{slash}PCM_CLK{slash}PWM0-Pad12)*%
X144780000Y-99060000D03*
%TO.P,J5,13,GPIO27/SDIO_DAT3*%
%TO.N,unconnected-(J5-GPIO27{slash}SDIO_DAT3-Pad13)*%
X142240000Y-101600000D03*
%TO.P,J5,14,GND*%
%TO.N,GND*%
X142240000Y-99060000D03*
%TO.P,J5,15,GPIO22/SDIO_CLK*%
%TO.N,unconnected-(J5-GPIO22{slash}SDIO_CLK-Pad15)*%
X139700000Y-101600000D03*
%TO.P,J5,16,GPIO23/SDIO_CMD*%
%TO.N,unconnected-(J5-GPIO23{slash}SDIO_CMD-Pad16)*%
X139700000Y-99060000D03*
%TO.P,J5,17,3V3*%
%TO.N,unconnected-(J5-3V3-Pad1)*%
X137160000Y-101600000D03*
%TO.P,J5,18,GPIO24/SDIO_DAT0*%
%TO.N,unconnected-(J5-GPIO24{slash}SDIO_DAT0-Pad18)*%
X137160000Y-99060000D03*
%TO.P,J5,19,MOSI_SPI0/GPIO10*%
%TO.N,unconnected-(J5-MOSI_SPI0{slash}GPIO10-Pad19)*%
X134620000Y-101600000D03*
%TO.P,J5,20,GND*%
%TO.N,GND*%
X134620000Y-99060000D03*
%TO.P,J5,21,MISO_SPI0/GPIO09*%
%TO.N,unconnected-(J5-MISO_SPI0{slash}GPIO09-Pad21)*%
X132080000Y-101600000D03*
%TO.P,J5,22,GPIO25/SDIO_DAT1*%
%TO.N,unconnected-(J5-GPIO25{slash}SDIO_DAT1-Pad22)*%
X132080000Y-99060000D03*
%TO.P,J5,23,SCLK_SPI0/GPIO11*%
%TO.N,unconnected-(J5-SCLK_SPI0{slash}GPIO11-Pad23)*%
X129540000Y-101600000D03*
%TO.P,J5,24,~{CE0}_SPI0/GPIO08*%
%TO.N,unconnected-(J5-~{CE0}_SPI0{slash}GPIO08-Pad24)*%
X129540000Y-99060000D03*
%TO.P,J5,25,GND*%
%TO.N,GND*%
X127000000Y-101600000D03*
%TO.P,J5,26,~{CE1}_SPI0/GPIO07*%
%TO.N,unconnected-(J5-~{CE1}_SPI0{slash}GPIO07-Pad26)*%
X127000000Y-99060000D03*
%TO.P,J5,27,ID_SD_I2C0/GPIO00*%
%TO.N,unconnected-(J5-ID_SD_I2C0{slash}GPIO00-Pad27)*%
X124460000Y-101600000D03*
%TO.P,J5,28,ID_SC_I2C0/GPIO01*%
%TO.N,unconnected-(J5-ID_SC_I2C0{slash}GPIO01-Pad28)*%
X124460000Y-99060000D03*
%TO.P,J5,29,GPCLK1/GPIO05*%
%TO.N,unconnected-(J5-GPCLK1{slash}GPIO05-Pad29)*%
X121920000Y-101600000D03*
%TO.P,J5,30,GND*%
%TO.N,GND*%
X121920000Y-99060000D03*
%TO.P,J5,31,GPCLK2/GPIO06*%
%TO.N,unconnected-(J5-GPCLK2{slash}GPIO06-Pad31)*%
X119380000Y-101600000D03*
%TO.P,J5,32,GPIO12/PWM0*%
%TO.N,unconnected-(J5-GPIO12{slash}PWM0-Pad32)*%
X119380000Y-99060000D03*
%TO.P,J5,33,GPIO13/PWM1*%
%TO.N,unconnected-(J5-GPIO13{slash}PWM1-Pad33)*%
X116840000Y-101600000D03*
%TO.P,J5,34,GND*%
%TO.N,GND*%
X116840000Y-99060000D03*
%TO.P,J5,35,GPIO19/SPI1_MISO/PCM_FS*%
%TO.N,unconnected-(J5-GPIO19{slash}SPI1_MISO{slash}PCM_FS-Pad35)*%
X114300000Y-101600000D03*
%TO.P,J5,36,GPIO16/SPI1_~{CE2}*%
%TO.N,unconnected-(J5-GPIO16{slash}SPI1_~{CE2}-Pad36)*%
X114300000Y-99060000D03*
%TO.P,J5,37,GPIO26/SDIO_DAT2*%
%TO.N,unconnected-(J5-GPIO26{slash}SDIO_DAT2-Pad37)*%
X111760000Y-101600000D03*
%TO.P,J5,38,GPIO20/SPI1_MOSI/PCM_DIN/PWM1*%
%TO.N,unconnected-(J5-GPIO20{slash}SPI1_MOSI{slash}PCM_DIN{slash}PWM1-Pad38)*%
X111760000Y-99060000D03*
%TO.P,J5,39,GND*%
%TO.N,GND*%
X109220000Y-101600000D03*
%TO.P,J5,40,GPIO21/SPI1_SCLK/PCM_DOUT*%
%TO.N,unconnected-(J5-GPIO21{slash}SPI1_SCLK{slash}PCM_DOUT-Pad40)*%
X109220000Y-99060000D03*
%TD*%
D23*
%TO.P,C10,1*%
%TO.N,/+11.1V*%
X143820000Y-76200000D03*
D12*
%TO.P,C10,2*%
%TO.N,Net-(C10-Pad2)*%
X147320000Y-76200000D03*
%TD*%
%TO.P,R1,1*%
%TO.N,Net-(Q1-S)*%
X91440000Y-128270000D03*
%TO.P,R1,2*%
%TO.N,GND*%
X99060000Y-128270000D03*
%TD*%
D26*
%TO.N,/+11.1V*%
X110294000Y-87826000D03*
X136043141Y-61778500D03*
X103438477Y-106680000D03*
X140449000Y-120301500D03*
X127000000Y-120301500D03*
X143820000Y-69555359D03*
X107599238Y-110840762D03*
X110139238Y-113380762D03*
X97160000Y-85720000D03*
%TO.N,Net-(SW1-A)*%
X99060000Y-119380000D03*
X101600000Y-121920000D03*
%TO.N,GND*%
X96520000Y-81280000D03*
D27*
X111760000Y-96520000D03*
D26*
X113880000Y-109160000D03*
X162560000Y-86360000D03*
X117365199Y-116840000D03*
X105420000Y-81280000D03*
X138440000Y-91440000D03*
X123830000Y-83190000D03*
D27*
X116840000Y-93980000D03*
D26*
X124283500Y-108841500D03*
D27*
X119114999Y-111760000D03*
D26*
X115521500Y-64721500D03*
X172720000Y-106680000D03*
X106680000Y-64721500D03*
X151031500Y-97691500D03*
D27*
X138440000Y-96411500D03*
D26*
X107970000Y-113050000D03*
X130721501Y-108841500D03*
D27*
X118110000Y-95250000D03*
D26*
X122614800Y-116840000D03*
X138440000Y-86360000D03*
D27*
X114300000Y-96520000D03*
D26*
X143608500Y-97691500D03*
X115521500Y-87678500D03*
X137940001Y-116059999D03*
X110490000Y-102870000D03*
X142154001Y-120274000D03*
X112153732Y-106286268D03*
X172720000Y-91440000D03*
X111130000Y-86990000D03*
X152400000Y-86360000D03*
D27*
X138440000Y-95240000D03*
D26*
X124283500Y-104316500D03*
X120660000Y-86360000D03*
%TO.N,/+5V*%
X142240000Y-112979999D03*
X149860000Y-93980000D03*
X116840000Y-68580000D03*
X158848500Y-102968500D03*
X110500000Y-68580000D03*
X113050000Y-85070000D03*
X109260000Y-81280000D03*
D27*
X104780000Y-78100000D03*
D26*
X144820000Y-88940000D03*
%TO.N,/+3.3V*%
X137160000Y-116667399D03*
D27*
X159684500Y-96520000D03*
D26*
X125372400Y-116667399D03*
D27*
X159684500Y-88053218D03*
D26*
X142240000Y-106680000D03*
X127000000Y-106680000D03*
X132080000Y-106680000D03*
%TO.N,/STM_TX*%
X100330000Y-125730000D03*
D27*
X111401214Y-91081214D03*
X143510000Y-95250000D03*
X107344100Y-95138328D03*
X139192600Y-90932600D03*
D26*
X97790000Y-123190000D03*
%TO.N,Net-(J6-SWO{slash}TDO)*%
X182290100Y-86360000D03*
X127740000Y-116100000D03*
X125200000Y-113560000D03*
D27*
%TO.N,Net-(J6-SWCLK{slash}TCK)*%
X124630504Y-111309999D03*
X126040252Y-112719748D03*
D26*
%TO.N,Net-(J6-NC{slash}TDI)*%
X126100000Y-110860000D03*
X127000000Y-111760000D03*
D27*
%TO.N,Net-(J6-SWDIO{slash}TMS)*%
X128312401Y-115527599D03*
X124544801Y-111760000D03*
D26*
%TO.N,/STEP_Y*%
X151330641Y-96520000D03*
X147320000Y-96520000D03*
D27*
%TO.N,/DIR_Y*%
X123309900Y-110370100D03*
X116840000Y-96520000D03*
%TO.N,/LED_PWM*%
X110581006Y-107000000D03*
X116663093Y-105644100D03*
X108790503Y-108790503D03*
D26*
X96520000Y-117879900D03*
D27*
X115804100Y-105644100D03*
D26*
X106250503Y-111330503D03*
%TD*%
D28*
%TO.N,/+11.1V*%
X103438477Y-106680000D02*
X107599238Y-110840762D01*
X112096499Y-115338022D02*
X112096499Y-117291928D01*
X110294000Y-87826000D02*
X99266000Y-87826000D01*
X143820000Y-69555359D02*
X136043141Y-61778500D01*
X99266000Y-87826000D02*
X97160000Y-85720000D01*
X110139238Y-113380762D02*
X112096499Y-115338022D01*
X127000000Y-120301500D02*
X140449000Y-120301500D01*
X112096499Y-117291928D02*
X116724571Y-121920000D01*
D29*
%TO.N,Net-(SW1-A)*%
X99060000Y-119380000D02*
X101600000Y-121920000D01*
D28*
%TO.N,GND*%
X113880000Y-109160000D02*
X111860000Y-109160000D01*
D29*
X122614800Y-116840000D02*
X117365199Y-116840000D01*
D28*
X112153732Y-104533732D02*
X110490000Y-102870000D01*
X124283500Y-108841500D02*
X124283500Y-104316500D01*
X138440000Y-95240000D02*
X138440000Y-96411500D01*
X138440000Y-86360000D02*
X138440000Y-91440000D01*
D29*
X117365199Y-111760000D02*
X117365199Y-110883061D01*
D28*
X124283500Y-108341500D02*
X122622000Y-106680000D01*
X120660000Y-86360000D02*
X123830000Y-83190000D01*
X172720000Y-91440000D02*
X172720000Y-106680000D01*
D29*
X115642138Y-109160000D02*
X113880000Y-109160000D01*
D28*
X143608500Y-97691500D02*
X151031500Y-97691500D01*
X118110000Y-95250000D02*
X116840000Y-93980000D01*
X96520000Y-81280000D02*
X105420000Y-81280000D01*
D29*
X117365199Y-111760000D02*
X119114999Y-111760000D01*
D28*
X152400000Y-86360000D02*
X162560000Y-86360000D01*
X142154001Y-120274000D02*
X137940001Y-116059999D01*
X115521500Y-64721500D02*
X106680000Y-64721500D01*
X111760000Y-96520000D02*
X114300000Y-96520000D01*
X111130000Y-86990000D02*
X111818500Y-87678500D01*
X111818500Y-87678500D02*
X115521500Y-87678500D01*
X130721501Y-108841500D02*
X124283500Y-108841500D01*
X122622000Y-106680000D02*
X116360000Y-106680000D01*
D29*
X117365199Y-110883061D02*
X115642138Y-109160000D01*
D28*
X111860000Y-109160000D02*
X107970000Y-113050000D01*
D29*
X117365199Y-116840000D02*
X117365199Y-111760000D01*
D28*
X112153732Y-106286268D02*
X112153732Y-104533732D01*
X116360000Y-106680000D02*
X113880000Y-109160000D01*
%TO.N,/+5V*%
X158848500Y-102968500D02*
X148837001Y-112979999D01*
X149860000Y-93980000D02*
X144820000Y-88940000D01*
X109260000Y-81280000D02*
X113050000Y-85070000D01*
X148837001Y-112979999D02*
X142240000Y-112979999D01*
X116840000Y-68580000D02*
X110500000Y-68580000D01*
X107320000Y-80640000D02*
X104780000Y-78100000D01*
D29*
%TO.N,/+3.3V*%
X125372400Y-116667399D02*
X137160000Y-116667399D01*
D28*
X159684500Y-88053218D02*
X159684500Y-96520000D01*
D29*
X127000000Y-106680000D02*
X132080000Y-106680000D01*
D28*
X142240000Y-106680000D02*
X145320000Y-106680000D01*
D29*
%TO.N,/STM_TX*%
X100330000Y-125730000D02*
X97790000Y-123190000D01*
X139192600Y-90932600D02*
X143510000Y-95250000D01*
X107344100Y-95138328D02*
X111401214Y-91081214D01*
%TO.N,Net-(J6-SWO{slash}TDO)*%
X125200000Y-113560000D02*
X127740000Y-116100000D01*
X180340000Y-86360000D02*
X177800000Y-83820000D01*
X177800000Y-82550000D02*
X176530000Y-81280000D01*
X177800000Y-83820000D02*
X177800000Y-82550000D01*
X182290100Y-86360000D02*
X180340000Y-86360000D01*
%TO.N,Net-(J6-SWCLK{slash}TCK)*%
X124630504Y-111309999D02*
X126040252Y-112719748D01*
%TO.N,Net-(J6-NC{slash}TDI)*%
X126100000Y-110860000D02*
X127000000Y-111760000D01*
%TO.N,Net-(J6-SWDIO{slash}TMS)*%
X124544801Y-111760000D02*
X128312401Y-115527599D01*
%TO.N,/STEP_Y*%
X147320000Y-96520000D02*
X151330641Y-96520000D01*
%TO.N,/DIR_Y*%
X131228901Y-108631328D02*
X131228901Y-109051672D01*
X124493672Y-103809100D02*
X124790900Y-104106328D01*
X117879900Y-97559900D02*
X117879900Y-102485500D01*
X124790900Y-108334100D02*
X130931673Y-108334100D01*
X116840000Y-96520000D02*
X117879900Y-97559900D01*
X131228901Y-109051672D02*
X129010473Y-111270100D01*
X130931673Y-108334100D02*
X131228901Y-108631328D01*
X129010473Y-111270100D02*
X127000000Y-111270100D01*
X124790900Y-104106328D02*
X124790900Y-108334100D01*
X127000000Y-111067176D02*
X126302924Y-110370100D01*
X117879900Y-102485500D02*
X119203500Y-103809100D01*
X127000000Y-111270100D02*
X127000000Y-111067176D01*
X119203500Y-103809100D02*
X124493672Y-103809100D01*
X126302924Y-110370100D02*
X123309900Y-110370100D01*
%TO.N,/LED_PWM*%
X96520000Y-117879900D02*
X99701106Y-117879900D01*
X99701106Y-117879900D02*
X106250503Y-111330503D01*
X108790503Y-108790503D02*
X110581006Y-107000000D01*
X116663093Y-105644100D02*
X115804100Y-105644100D01*
%TD*%
M02*
