%TF.GenerationSoftware,KiCad,Pcbnew,9.0.7*%
%TF.CreationDate,2026-02-24T12:08:09-06:00*%
%TF.ProjectId,portable_film_pcb,706f7274-6162-46c6-955f-66696c6d5f70,rev?*%
%TF.SameCoordinates,Original*%
%TF.FileFunction,Paste,Top*%
%TF.FilePolarity,Positive*%
%FSLAX46Y46*%
G04 Gerber Fmt 4.6, Leading zero omitted, Abs format (unit mm)*
G04 Created by KiCad (PCBNEW 9.0.7) date 2026-02-24 12:08:09*
%MOMM*%
%LPD*%
G01*
G04 APERTURE LIST*
G04 Aperture macros list*
%AMRoundRect*
0 Rectangle with rounded corners*
0 $1 Rounding radius*
0 $2 $3 $4 $5 $6 $7 $8 $9 X,Y pos of 4 corners*
0 Add a 4 corners polygon primitive as box body*
4,1,4,$2,$3,$4,$5,$6,$7,$8,$9,$2,$3,0*
0 Add four circle primitives for the rounded corners*
1,1,$1+$1,$2,$3*
1,1,$1+$1,$4,$5*
1,1,$1+$1,$6,$7*
1,1,$1+$1,$8,$9*
0 Add four rect primitives between the rounded corners*
20,1,$1+$1,$2,$3,$4,$5,0*
20,1,$1+$1,$4,$5,$6,$7,0*
20,1,$1+$1,$6,$7,$8,$9,0*
20,1,$1+$1,$8,$9,$2,$3,0*%
G04 Aperture macros list end*
%ADD10RoundRect,0.375000X0.375000X-0.625000X0.375000X0.625000X-0.375000X0.625000X-0.375000X-0.625000X0*%
%ADD11RoundRect,0.500000X1.400000X-0.500000X1.400000X0.500000X-1.400000X0.500000X-1.400000X-0.500000X0*%
%ADD12RoundRect,0.079500X0.100500X-0.079500X0.100500X0.079500X-0.100500X0.079500X-0.100500X-0.079500X0*%
%ADD13R,0.350000X0.350000*%
%ADD14R,0.300000X0.350000*%
%ADD15R,0.350000X0.300000*%
%ADD16R,0.600000X0.600000*%
%ADD17R,0.430000X0.430000*%
G04 APERTURE END LIST*
D10*
%TO.C,U2*%
X134860000Y-112979999D03*
X137160000Y-112979999D03*
D11*
X137160000Y-106679999D03*
D10*
X139460000Y-112979999D03*
%TD*%
D12*
%TO.C,C5*%
X111760000Y-107025000D03*
X111760000Y-106335000D03*
%TD*%
D13*
%TO.C,U1*%
X116840000Y-115385000D03*
D14*
X117315000Y-115385000D03*
X117765000Y-115385000D03*
X118215000Y-115385000D03*
X118665000Y-115385000D03*
X119115000Y-115385000D03*
X119565000Y-115385000D03*
X120015000Y-115385000D03*
X120465000Y-115385000D03*
X120915000Y-115385000D03*
X121365000Y-115385000D03*
X121815000Y-115385000D03*
X122265000Y-115385000D03*
X122715000Y-115385000D03*
X123165000Y-115385000D03*
X123615000Y-115385000D03*
D13*
X124090000Y-115385000D03*
D15*
X124090000Y-114910000D03*
X124090000Y-114460000D03*
X124090000Y-114010000D03*
X124090000Y-113560000D03*
X124090000Y-113110000D03*
X124090000Y-112660000D03*
X124090000Y-112210000D03*
X124090000Y-111760000D03*
X124090000Y-111310000D03*
X124090000Y-110860000D03*
X124090000Y-110410000D03*
X124090000Y-109960000D03*
X124090000Y-109510000D03*
D13*
X124090000Y-109035000D03*
D14*
X123615000Y-109035000D03*
X123165000Y-109035000D03*
X122715000Y-109035000D03*
X122265000Y-109035000D03*
X121815000Y-109035000D03*
X121365000Y-109035000D03*
X120915000Y-109035000D03*
X120465000Y-109035000D03*
X120015000Y-109035000D03*
X119565000Y-109035000D03*
X119115000Y-109035000D03*
X118665000Y-109035000D03*
X118215000Y-109035000D03*
X117765000Y-109035000D03*
X117315000Y-109035000D03*
D13*
X116840000Y-109035000D03*
D15*
X116840000Y-109510000D03*
X116840000Y-109960000D03*
X116840000Y-110410000D03*
X116840000Y-110860000D03*
X116840000Y-111310000D03*
X116840000Y-111760000D03*
X116840000Y-112210000D03*
X116840000Y-112660000D03*
X116840000Y-113110000D03*
X116840000Y-113560000D03*
X116840000Y-114010000D03*
X116840000Y-114460000D03*
X116840000Y-114910000D03*
D16*
X118215000Y-113560000D03*
X119115000Y-113560000D03*
X120015000Y-113560000D03*
X120915000Y-113560000D03*
X121815000Y-113560000D03*
X122715000Y-113560000D03*
X122715000Y-112660000D03*
X122715000Y-111760000D03*
X122715000Y-110860000D03*
X121815000Y-110860000D03*
X120915000Y-110860000D03*
X120015000Y-110860000D03*
X119115000Y-110860000D03*
X118215000Y-110860000D03*
X118215000Y-111760000D03*
X118215000Y-112660000D03*
X119115000Y-112660000D03*
X120015000Y-112660000D03*
X120915000Y-112660000D03*
X121815000Y-112660000D03*
X121815000Y-111760000D03*
X120915000Y-111760000D03*
X120015000Y-111760000D03*
X119115000Y-111760000D03*
D17*
X113880000Y-115260000D03*
X113880000Y-109160000D03*
%TD*%
M02*
